<?xml version="1.0" encoding="UTF-8" standalone="no"?>
<!DOCTYPE svg PUBLIC "-//W3C//DTD SVG 1.1//EN" "http://www.w3.org/Graphics/SVG/1.1/DTD/svg11.dtd">
<svg width="100%" height="100%" viewBox="0 0 257 256" version="1.1" xmlns="http://www.w3.org/2000/svg" xmlns:xlink="http://www.w3.org/1999/xlink" xml:space="preserve" xmlns:serif="http://www.serif.com/" style="fill-rule:evenodd;clip-rule:evenodd;stroke-linejoin:round;stroke-miterlimit:1.5;">
    <g transform="matrix(1,0,0,1,-301.066391,0)">
        <g id="Artboard1" transform="matrix(16.00017,0,0,15.999977,301.066391,0)">
            <rect x="0" y="0" width="16" height="16" style="fill:none;"/>
            <clipPath id="_clip1">
                <rect x="0" y="0" width="16" height="16"/>
            </clipPath>
            <g clip-path="url(#_clip1)">
                <g transform="matrix(0.196898,0,0,0.273463,27.788831,19.847666)">
                    <rect x="-145.251" y="-74.015" width="93.307" height="68.352"/>
                </g>
                <g transform="matrix(0.066328,0,0,0.06474,-2.268842,0.121281)">
                    <path d="M268.253,63.389L268.253,179.515C268.253,211.561 242.859,237.578 211.581,237.578L98.1,237.578C66.822,237.578 41.429,211.561 41.429,179.515L41.429,63.389C41.429,31.344 66.822,5.326 98.1,5.326L211.581,5.326C242.859,5.326 268.253,31.344 268.253,63.389Z" style="fill:none;stroke:white;stroke-width:14.3px;"/>
                </g>
                <g transform="matrix(0.123942,0,0,0.121623,-16.612806,-0.713228)">
                    <g transform="matrix(96,0,0,96,243.974946,131.886898)">
                    </g>
                    <text x="172.167px" y="131.887px" style="font-family:'MADETOMMY-Black', 'MADE TOMMY';font-weight:900;font-size:96px;fill:white;">N</text>
                </g>
                <g transform="matrix(0.105953,-0.028914,0.029465,0.103971,-18.840062,0.186636)">
                    <g transform="matrix(96,0,0,96,235.718946,131.886898)">
                    </g>
                    <text x="172.167px" y="131.887px" style="font-family:'MADETOMMY-Black', 'MADE TOMMY';font-weight:900;font-size:96px;fill:white;">P</text>
                </g>
            </g>
        </g>
    </g>
</svg>
